<?xml version="1.0" encoding="UTF-8"?>
<svg fill="#ffffff" version="1.1" xmlns="http://www.w3.org/2000/svg" width="1478" height="1478">
<path d="M0 0 C11.65608162 -0.07931419 23.30373601 0.02970321 34.95776367 0.25952148 C35.64848992 0.27314059 36.33921617 0.2867597 37.05087352 0.3007915 C40.01431371 0.35949402 42.97774561 0.41859713 45.9411689 0.47814667 C62.64559413 0.81256222 79.35104519 1.09587563 96.05632925 1.38348341 C99.18513814 1.43745926 102.31393784 1.49194804 105.44273758 1.54645157 C172.34131678 2.70527875 239.22429498 3.11303578 306.1318492 3.13666316 C316.46534024 3.14051448 326.7988257 3.1492471 337.13231354 3.15797587 C346.50723496 3.16569036 355.88215745 3.17193564 365.25708008 3.17797852 C366.29227681 3.17866064 367.32747355 3.17934276 368.39403988 3.18004556 C393.40506675 3.1961614 418.41583023 3.18917411 443.42680584 3.13347481 C460.457287 3.09585833 477.48760876 3.08652522 494.5181247 3.10257733 C503.87129352 3.11036921 513.2239849 3.10451706 522.57706451 3.06026459 C581.58702056 2.79120362 638.4261009 6.75485289 695.75 22.1875 C696.78155716 22.46355072 696.78155716 22.46355072 697.83395386 22.74517822 C754.10769423 37.87120024 808.28346746 63.13917894 853 101 C853.78793945 101.66056396 853.78793945 101.66056396 854.59179688 102.33447266 C868.35401678 113.87659116 881.28412353 126.19797836 894 138.875 C894.49490936 139.36723053 894.98981873 139.85946106 895.49972534 140.36660767 C901.221669 146.06501157 906.75243249 151.85989891 912 158 C913.00906985 159.13387331 914.02074404 160.26543492 915.03515625 161.39453125 C928.71121062 176.76189128 940.39231095 193.3946639 951 211 C951.68956787 212.1437207 951.68956787 212.1437207 952.39306641 213.31054688 C984.76593878 267.37634437 1004.63201582 326.5426801 1013 389 C1013.13277344 389.99016113 1013.26554687 390.98032227 1013.40234375 392.00048828 C1015.33094948 407.44829515 1015.20012829 423.02036903 1015.25 438.5625 C1015.2554483 439.5905072 1015.26089661 440.6185144 1015.26651001 441.67767334 C1015.34572231 461.7863664 1014.28415174 481.79211351 1010.8125 501.625 C1010.59819336 502.87095947 1010.38388672 504.11691895 1010.16308594 505.40063477 C1003.00957815 545.72891434 991.68882412 585.98814047 974 623 C973.63358398 623.78052734 973.26716797 624.56105469 972.88964844 625.36523438 C959.86866446 653.0020735 943.42148708 679.41172115 924 703 C923.54915039 703.54849609 923.09830078 704.09699219 922.63378906 704.66210938 C916.4921951 712.09827638 910.10784893 719.29412859 903.53466797 726.35205078 C901.83381356 728.17845346 900.13769259 730.0091981 898.44140625 731.83984375 C897.21123798 733.16434164 895.98077275 734.48856379 894.75 735.8125 C894.18369873 736.42270996 893.61739746 737.03291992 893.03393555 737.66162109 C887.40727599 743.69434516 881.66828801 749.48929392 875.41015625 754.8671875 C873.52929237 756.53161486 871.69394923 758.21897076 869.87109375 759.9453125 C861.9228416 767.47023136 853.73854924 774.41244129 845 781 C844.41669922 781.44553223 843.83339844 781.89106445 843.23242188 782.35009766 C826.48576444 795.12149201 808.42547054 805.84638263 790 816 C789.09266113 816.50031738 788.18532227 817.00063477 787.25048828 817.51611328 C704.83394757 862.58516903 610.63270011 870.9248556 518.32207489 871.19923019 C514.62175203 871.21130501 510.92153176 871.23080578 507.22125244 871.25234985 C496.72436143 871.31312952 486.22748634 871.36856988 475.73046875 871.40136719 C469.25540439 871.42228211 462.78055326 871.45751392 456.30561066 871.50212479 C453.85443871 871.51625839 451.40322937 871.52500124 448.95201874 871.52817917 C445.54558181 871.53307672 442.13971894 871.55619082 438.73339844 871.58349609 C437.72983307 871.58048996 436.7262677 871.57748383 435.69229126 871.5743866 C428.73084369 871.6574324 424.42837907 872.51648019 419.38478899 877.6745941 C416.66270903 881.0371346 416.31813852 883.70140039 416.20171356 888.05546284 C416.1658172 889.0899895 416.1658172 889.0899895 416.12919566 890.14541568 C416.05900746 892.43050864 416.02690387 894.71401246 416 897 C415.96941615 898.59553536 415.93861444 900.19106657 415.90760899 901.78659379 C415.81849314 907.22846806 415.7952588 912.67010889 415.77258301 918.1125946 C415.76044815 920.21193394 415.74791057 922.31127097 415.73500872 924.41060573 C415.70093095 930.14061224 415.67247097 935.87063463 415.64496446 941.60067594 C415.61420835 947.79681631 415.5781448 953.99292608 415.54270935 960.18904114 C415.48202646 970.91970673 415.4245534 981.65038439 415.36924744 992.38107872 C415.28902631 1007.93594945 415.20289841 1023.4907836 415.11525899 1039.0456141 C415.07433054 1046.31150207 415.03369481 1053.57739168 414.99314117 1060.84328175 C414.98908158 1061.57058729 414.98502198 1062.29789284 414.98083937 1063.04723795 C414.88438882 1080.33966751 414.79084814 1097.63211263 414.69775391 1114.92456055 C414.69368302 1115.68055574 414.68961214 1116.43655093 414.6854179 1117.21545507 C414.64418903 1124.87228538 414.60300218 1132.52911591 414.56184377 1140.18594659 C414.475565 1156.23651459 414.38904195 1172.28708127 414.30224609 1188.33764648 C414.29614473 1189.46621478 414.29614473 1189.46621478 414.2899201 1190.61758244 C414.19679787 1207.8397493 414.10291408 1225.06191161 414.00685883 1242.28406239 C414.00280608 1243.01076544 413.99875334 1243.7374685 413.99457779 1244.48619286 C413.95406448 1251.747963 413.91343127 1259.00973246 413.87261468 1266.27150091 C413.78540903 1281.79190383 413.70039398 1297.31231421 413.6199988 1312.832754 C413.56126415 1324.16571655 413.49969405 1335.4986602 413.43547881 1346.8315933 C413.40090952 1352.95055998 413.36758552 1359.06952617 413.33787346 1365.18851852 C413.20615392 1392.138601 412.89382683 1419.06343519 412 1446 C407.21984165 1445.27704311 403.07616141 1443.98653279 398.640625 1442.10546875 C397.56097725 1441.65732063 397.56097725 1441.65732063 396.45951843 1441.20011902 C394.88703831 1440.54696664 393.31568456 1439.89109745 391.74533081 1439.23284912 C387.36357877 1437.39723654 382.97247746 1435.58422804 378.58203125 1433.76953125 C377.64625748 1433.38228882 376.7104837 1432.99504639 375.74635315 1432.59606934 C364.84765881 1428.09502002 353.89214759 1423.73760938 342.9375 1419.375 C324.67745331 1412.09602343 306.45157876 1404.73647974 288.25 1397.3125 C286.58117264 1396.63184479 286.58117264 1396.63184479 284.87863159 1395.93743896 C283.7945401 1395.49514954 282.71044861 1395.05286011 281.59350586 1394.59716797 C280.52833237 1394.16277405 279.46315887 1393.72838013 278.3657074 1393.28082275 C276.281211 1392.42889298 274.19781709 1391.57425992 272.11561584 1390.71673584 C266.95598941 1388.59454703 261.78447096 1386.52266589 256.57226562 1384.53271484 C255.54784363 1384.13440964 254.52342163 1383.73610443 253.46795654 1383.32572937 C251.52632908 1382.57229268 249.57861815 1381.83428997 247.62432861 1381.11433411 C246.76571228 1380.77778305 245.90709595 1380.44123199 245.02246094 1380.09448242 C244.26672791 1379.80925217 243.51099487 1379.52402191 242.73236084 1379.23014832 C241 1378 241 1378 240.39666426 1375.84803516 C239.94319734 1372.59215893 239.89650556 1369.48971256 239.92101097 1366.20128918 C239.92462275 1365.52648355 239.92823453 1364.85167792 239.93195576 1364.15642364 C239.9453588 1361.88882277 239.96616208 1359.62135026 239.98690796 1357.35380554 C239.99814848 1355.71096736 240.00893237 1354.06812599 240.01929909 1352.42528206 C240.04918431 1347.89802293 240.08553508 1343.37083492 240.12289719 1338.84363216 C240.16217069 1333.94694803 240.19544832 1329.05022278 240.22943211 1324.1534996 C240.28946473 1315.61868346 240.35324695 1307.08390183 240.41944695 1298.54913139 C240.51646238 1286.03306407 240.6071111 1273.51695655 240.69618433 1261.00083048 C240.84332324 1240.34146775 240.99468446 1219.68213823 241.14889526 1199.02282715 C241.50426266 1151.40448351 241.85236784 1103.78608798 242.19297004 1056.16763639 C242.22840965 1051.21340979 242.26395748 1046.25918398 242.29959893 1041.30495882 C242.72256439 982.48695697 243.11223681 923.66963091 243.26807706 864.85024769 C243.28105847 859.9509611 243.29490578 855.05167771 243.30935669 850.15239525 C243.37710605 827.1308659 243.44213754 804.10941803 243.44178134 781.08777446 C243.4423086 772.71044183 243.45533528 764.33319485 243.47883099 755.95589525 C243.49343694 750.45643004 243.49187984 744.95735241 243.47541189 739.45789653 C243.46974199 736.23042288 243.48033508 733.00316502 243.49596143 729.77573073 C243.49971849 728.32196536 243.49674898 726.86816293 243.48620105 725.41443098 C243.42875477 717.00027542 243.42591136 710.01473766 249.37647152 703.49092484 C256.01916265 697.43604039 263.15169428 697.72942143 271.609375 697.84375 C272.79746765 697.85184692 273.9855603 697.85994385 275.20965576 697.86828613 C279.13997915 697.89947066 283.06992433 697.94723208 287 698 C288.29091553 698.01643555 289.58183105 698.03287109 290.91186523 698.04980469 C296.58697887 698.12381121 302.26200521 698.20297299 307.93699646 698.28581238 C360.16371669 699.04556943 412.39200478 699.14370098 464.62334001 699.17937243 C471.82747576 699.18469709 479.03159174 699.19523164 486.23571777 699.20800781 C495.18566688 699.22366386 504.13558503 699.23127964 513.08554822 699.22964984 C517.72344893 699.22891822 522.3612924 699.23104368 526.99918175 699.24188805 C557.96328894 699.30969994 589.07567673 698.86417561 619.8125 694.75 C620.63877899 694.64196045 621.46505798 694.5339209 622.31637573 694.42260742 C654.39889614 690.18592017 684.39203622 680.12353828 712 663 C713.02738281 662.37222656 714.05476562 661.74445312 715.11328125 661.09765625 C727.44273059 653.20614131 739.2047916 643.89558503 749.921875 633.92578125 C751.85789733 632.13168537 753.84983661 630.44175234 755.875 628.75 C768.04958214 618.03345165 777.52314604 605.06479867 787 592 C787.68304199 591.0713916 787.68304199 591.0713916 788.37988281 590.12402344 C791.04753029 586.49252572 793.56529923 582.79137268 796 579 C796.36303223 578.43958008 796.72606445 577.87916016 797.10009766 577.30175781 C831.65467158 522.83864988 839.71866969 453.39776438 826.17285156 391.20214844 C823.09728348 378.15652576 819.24192534 365.34205176 814 353 C813.52506104 351.86933105 813.52506104 351.86933105 813.04052734 350.71582031 C804.74920397 331.15821368 794.79746751 312.97192973 782 296 C781.51998535 295.36304199 781.0399707 294.72608398 780.54541016 294.06982422 C774.71535659 286.39116861 768.6350147 279.00246014 762 272 C761.52820313 271.49033691 761.05640625 270.98067383 760.5703125 270.45556641 C750.73863111 259.8846374 739.76466375 251.32572472 728 243 C727.31760254 242.51515137 726.63520508 242.03030273 725.93212891 241.53076172 C685.87492208 213.31584376 641.04748717 201.02986393 593 195 C591.17816408 194.74165041 591.17816408 194.74165041 589.31952339 194.47808164 C584.93690246 193.93377807 580.622514 193.86733771 576.21086788 193.88926792 C574.93135469 193.88949854 574.93135469 193.88949854 573.62599275 193.88973382 C570.77235824 193.89143504 567.91879114 193.9002959 565.06517029 193.90907288 C562.99673023 193.91166753 560.92828955 193.91379305 558.85984856 193.91549009 C554.3650502 193.92011076 549.87027183 193.92786526 545.37548256 193.93800163 C538.06215441 193.95440729 530.74882716 193.96379735 523.43548584 193.9720459 C515.5600778 193.98121359 507.68467136 193.99076269 499.80926692 194.00262368 C481.0019687 194.03068944 462.19470953 194.04311321 443.38739082 194.0439563 C441.25218279 194.04405239 439.11697478 194.04418975 436.98176675 194.04433609 C425.36186069 194.04508786 413.74195463 194.04506825 402.12204854 194.044836 C391.65826987 194.04465342 381.19449147 194.04516703 370.73071289 194.04663086 C369.61210621 194.04677431 369.61210621 194.04677431 368.47090142 194.04692066 C344.27382221 194.05023979 320.07688914 194.08350614 295.87986038 194.13115778 C270.99782057 194.17997936 246.11596295 194.19587622 221.23388256 194.17132179 C217.72119462 194.16787701 214.20850645 194.16482349 210.69581795 194.16201591 C210.00450352 194.16145349 209.31318909 194.16089107 208.60092574 194.16031161 C197.47064325 194.15225481 186.34070684 194.17919908 175.2105054 194.21940179 C164.02932163 194.25908599 152.84858647 194.26191527 141.66733866 194.22933079 C135.60842675 194.21278265 129.5506586 194.21268167 123.49185371 194.25597191 C117.94786198 194.29523908 112.40590519 194.28868118 106.86196185 194.24526947 C104.85400392 194.23771555 102.84589705 194.24716679 100.83811932 194.27510787 C85.81550005 194.47065268 85.81550005 194.47065268 81.30164921 190.81419075 C79.47411554 188.26178319 78.19996162 185.89148389 77 183 C76.33834315 181.83084656 75.66882697 180.66607286 74.98828125 179.5078125 C68.42371829 166.25627049 62.72418893 152.62966465 57 139 C56.67475342 138.22599854 56.34950684 137.45199707 56.0144043 136.65454102 C50.71440423 124.03940378 45.43797775 111.41443528 40.16461182 98.78814697 C36.79983506 90.73267992 33.43187188 82.67854598 30.0625 74.625 C29.69872253 73.755336 29.33494507 72.885672 28.96014404 71.98965454 C22.01704141 55.39439084 15.02467814 38.82005098 8.01586914 22.25244141 C7.6275441 21.33410522 7.23921906 20.41576904 6.83912659 19.46960449 C6.11450005 17.75612057 5.38946083 16.04281109 4.66392517 14.32971191 C4.03803243 12.84964578 3.41410754 11.36874495 2.79272461 9.88677979 C2.1259448 8.29976374 1.44804499 6.71742625 0.76757812 5.13623047 C0 3 0 3 0 0 Z " fill="#BEBEBE" transform="translate(195,9)"/>
<path d="M0 0 C48.26201897 -0.08575065 96.52404336 -0.16533248 144.78611755 -0.2117157 C145.86071965 -0.21275113 145.86071965 -0.21275113 146.95703087 -0.21380747 C162.53327782 -0.22877844 178.10952558 -0.24262843 193.68577454 -0.25532665 C201.32640521 -0.26156232 208.96703566 -0.26804523 216.60766602 -0.2746582 C217.7480558 -0.2756389 217.7480558 -0.2756389 218.91148376 -0.2766394 C243.47183989 -0.29787595 268.03213779 -0.33537941 292.59245877 -0.3814861 C317.87036827 -0.42885277 343.14824567 -0.45947411 368.42619879 -0.46957495 C372.01166595 -0.47101533 375.597133 -0.47264351 379.18260002 -0.47438622 C379.88814357 -0.47472333 380.59368712 -0.47506045 381.32061078 -0.47540778 C392.59369111 -0.48127402 403.86667099 -0.50434817 415.13971065 -0.53416017 C426.52395999 -0.56388801 437.90808205 -0.57436873 449.29237939 -0.56750689 C455.43995916 -0.56433806 461.58724881 -0.56882065 467.73477554 -0.59602737 C504.06972249 -0.7487841 539.59644056 1.13919873 575 10 C576.30662598 10.32605225 576.30662598 10.32605225 577.63964844 10.65869141 C614.9434534 20.19557443 648.22746732 37.40046472 678.140625 61.51513672 C679.656233 62.72547389 681.19939117 63.90124706 682.75 65.06640625 C696.0158423 75.08301353 707.25773287 87.61497212 717 101 C718.6233176 103.04300459 720.24836316 105.0846372 721.875 107.125 C762.22831691 159.15786525 779.08678489 226.77190519 772.25 291.6875 C772.17149811 292.45947723 772.09299622 293.23145447 772.01211548 294.02682495 C770.81961674 305.5728059 768.72516743 316.7206148 766 328 C765.75862305 329.01288086 765.51724609 330.02576172 765.26855469 331.06933594 C758.09974524 360.28675261 744.40161336 390.2299019 726 414 C724.97639812 415.36218052 723.95439649 416.72556433 722.93359375 418.08984375 C716.94365165 426.05975059 710.80162923 433.70099386 704 441 C701.6124645 443.71840657 699.22597877 446.43759047 696.84765625 449.1640625 C695 451 695 451 693 451 C693 451.66 693 452.32 693 453 C670.70857063 476.74521824 637.54170946 495.96005159 607.50390625 507.63671875 C605.46191085 508.43120749 603.42499565 509.23951309 601.40234375 510.08203125 C597.77596108 511.56647574 595.73545342 512.1800452 592 511 C592.52207031 510.79955078 593.04414062 510.59910156 593.58203125 510.39257812 C605.38809946 505.83349224 616.80601809 500.90430795 628 495 C628.99386719 494.48695313 629.98773437 493.97390625 631.01171875 493.4453125 C647.70843938 484.63249276 663.1174272 472.76767402 676.921875 459.92578125 C678.85789733 458.13168537 680.84983661 456.44175234 682.875 454.75 C695.04958214 444.03345165 704.52314604 431.06479867 714 418 C714.45536133 417.38092773 714.91072266 416.76185547 715.37988281 416.12402344 C718.04753029 412.49252572 720.56529923 408.79137268 723 405 C723.36303223 404.43958008 723.72606445 403.87916016 724.10009766 403.30175781 C758.65467158 348.83864988 766.71866969 279.39776438 753.17285156 217.20214844 C750.09728348 204.15652576 746.24192534 191.34205176 741 179 C740.52506104 177.86933105 740.52506104 177.86933105 740.04052734 176.71582031 C731.74920397 157.15821368 721.79746751 138.97192973 709 122 C708.51998535 121.36304199 708.0399707 120.72608398 707.54541016 120.06982422 C701.71535659 112.39116861 695.6350147 105.00246014 689 98 C688.52820313 97.49033691 688.05640625 96.98067383 687.5703125 96.45556641 C677.73863111 85.8846374 666.76466375 77.32572472 655 69 C654.31760254 68.51515137 653.63520508 68.03030273 652.93212891 67.53076172 C612.87492208 39.31584376 568.04748717 27.02986393 520 21 C518.78544272 20.82776694 517.57088544 20.65553388 516.31952339 20.47808164 C511.93690246 19.93377807 507.622514 19.86733771 503.21086788 19.88926792 C502.35785909 19.88942167 501.50485029 19.88957542 500.62599275 19.88973382 C497.77235824 19.89143504 494.91879114 19.9002959 492.06517029 19.90907288 C489.99673023 19.91166753 487.92828955 19.91379305 485.85984856 19.91549009 C481.3650502 19.92011076 476.87027183 19.92786526 472.37548256 19.93800163 C465.06215441 19.95440729 457.74882716 19.96379735 450.43548584 19.9720459 C442.5600778 19.98121359 434.68467136 19.99076269 426.80926692 20.00262368 C408.0019687 20.03068944 389.19470953 20.04311321 370.38739082 20.0439563 C368.25218279 20.04405239 366.11697478 20.04418975 363.98176675 20.04433609 C352.36186069 20.04508786 340.74195463 20.04506825 329.12204854 20.044836 C318.65826987 20.04465342 308.19449147 20.04516703 297.73071289 20.04663086 C296.61210621 20.04677431 296.61210621 20.04677431 295.47090142 20.04692066 C271.27382221 20.05023979 247.07688914 20.08350614 222.87986038 20.13115778 C197.99782057 20.17997936 173.11596295 20.19587622 148.23388256 20.17132179 C144.72119462 20.16787701 141.20850645 20.16482349 137.69581795 20.16201591 C137.00450352 20.16145349 136.31318909 20.16089107 135.60092574 20.16031161 C124.47064325 20.15225481 113.34070684 20.17919908 102.2105054 20.21940179 C91.02932163 20.25908599 79.84858647 20.26191527 68.66733866 20.22933079 C62.60842675 20.21278265 56.5506586 20.21268167 50.49185371 20.25597191 C44.94786198 20.29523908 39.40590519 20.28868118 33.86196185 20.24526947 C31.85400392 20.23771555 29.84589705 20.24716679 27.83811932 20.27510787 C12.8202201 20.47059124 12.8202201 20.47059124 8.31661808 16.83204353 C6.4881427 14.27603804 5.221714 11.88627915 4 9 C3.20106056 7.65849719 2.3902322 6.32393105 1.5625 5 C0 2 0 2 0 0 Z " fill="#80807F" transform="translate(268,183)"/>
<path d="M0 0 C0 0.99 0 1.98 0 3 C-9.79412186 8.61837151 -19.44645005 13.9251571 -30 18 C-32.12686136 18.89140513 -34.25186729 19.7872501 -36.375 20.6875 C-47.45557478 25.37308741 -47.45557478 25.37308741 -52 24 C-51.47792969 23.79955078 -50.95585938 23.59910156 -50.41796875 23.39257812 C-38.61640982 18.83523356 -27.17718433 13.93049714 -16 8 C-14.90171875 7.41734375 -13.8034375 6.8346875 -12.671875 6.234375 C-1.11104369 0 -1.11104369 0 0 0 Z " fill="#999999" transform="translate(912,670)"/>
</svg>
